<svg width="136" height="30" viewBox="0 0 136 30" fill="none" xmlns="http://www.w3.org/2000/svg">
<rect width="30" height="30" rx="8" fill="#FF6E13"/>
<path d="M21.75 21.75L18.4928 18.4927M18.4928 18.4927C19.0499 17.9356 19.4919 17.2741 19.7934 16.5462C20.095 15.8182 20.2502 15.038 20.2502 14.25C20.2502 13.462 20.095 12.6818 19.7934 11.9538C19.4919 11.2259 19.0499 10.5644 18.4928 10.0073C17.9356 9.45008 17.2741 9.00812 16.5462 8.70658C15.8182 8.40504 15.038 8.24985 14.25 8.24985C13.4621 8.24985 12.6818 8.40504 11.9538 8.70658C11.2259 9.00812 10.5644 9.45008 10.0073 10.0073C8.882 11.1325 8.24985 12.6587 8.24985 14.25C8.24985 15.8413 8.882 17.3675 10.0073 18.4927C11.1325 19.618 12.6587 20.2502 14.25 20.2502C15.8413 20.2502 17.3675 19.618 18.4928 18.4927Z" stroke="white" stroke-width="2.5" stroke-linecap="round" stroke-linejoin="round"/>
<path d="M43.318 21.18C41.566 21.18 40.24 20.682 39.34 19.686C38.44 18.69 37.99 17.262 37.99 15.402V8.04H40.33V15.744C40.33 16.932 40.594 17.82 41.122 18.408C41.65 18.984 42.388 19.272 43.336 19.272C44.284 19.272 45.022 18.984 45.55 18.408C46.078 17.82 46.342 16.938 46.342 15.762V8.04H48.682V15.42C48.682 17.268 48.226 18.69 47.314 19.686C46.414 20.682 45.082 21.18 43.318 21.18ZM54.2844 21.18C53.0124 21.18 51.9984 20.916 51.2424 20.388C50.4864 19.848 50.0724 19.104 50.0004 18.156H52.0704C52.1304 18.624 52.3524 18.978 52.7364 19.218C53.1204 19.458 53.6364 19.578 54.2844 19.578C54.8724 19.578 55.3104 19.488 55.5984 19.308C55.8984 19.116 56.0484 18.846 56.0484 18.498C56.0484 18.246 55.9644 18.042 55.7964 17.886C55.6284 17.718 55.3104 17.58 54.8424 17.472L53.3664 17.13C52.3584 16.914 51.6084 16.578 51.1164 16.122C50.6364 15.654 50.3964 15.072 50.3964 14.376C50.3964 13.524 50.7204 12.858 51.3684 12.378C52.0284 11.886 52.9344 11.64 54.0864 11.64C55.2264 11.64 56.1384 11.886 56.8224 12.378C57.5184 12.858 57.9024 13.524 57.9744 14.376H55.9044C55.8444 14.004 55.6524 13.722 55.3284 13.53C55.0164 13.338 54.5844 13.242 54.0324 13.242C53.5164 13.242 53.1264 13.326 52.8624 13.494C52.5984 13.65 52.4664 13.884 52.4664 14.196C52.4664 14.436 52.5684 14.64 52.7724 14.808C52.9764 14.964 53.3184 15.102 53.7984 15.222L55.3824 15.582C56.2824 15.786 56.9604 16.14 57.4164 16.644C57.8844 17.148 58.1184 17.742 58.1184 18.426C58.1184 19.302 57.7824 19.98 57.1104 20.46C56.4384 20.94 55.4964 21.18 54.2844 21.18ZM64.1073 21.18C63.1353 21.18 62.2833 20.976 61.5513 20.568C60.8313 20.16 60.2673 19.596 59.8593 18.876C59.4633 18.156 59.2653 17.328 59.2653 16.392C59.2653 15.456 59.4633 14.634 59.8593 13.926C60.2673 13.206 60.8313 12.648 61.5513 12.252C62.2713 11.844 63.1113 11.64 64.0713 11.64C64.9833 11.64 65.7753 11.832 66.4473 12.216C67.1193 12.588 67.6413 13.116 68.0133 13.8C68.3853 14.484 68.5713 15.282 68.5713 16.194C68.5713 16.362 68.5653 16.518 68.5533 16.662C68.5413 16.806 68.5233 16.95 68.4993 17.094H60.6693V15.51H66.7533L66.2853 15.942C66.2853 15.078 66.0873 14.43 65.6913 13.998C65.2953 13.566 64.7433 13.35 64.0353 13.35C63.2673 13.35 62.6553 13.614 62.1993 14.142C61.7553 14.67 61.5333 15.432 61.5333 16.428C61.5333 17.412 61.7553 18.168 62.1993 18.696C62.6553 19.212 63.2973 19.47 64.1253 19.47C64.6053 19.47 65.0253 19.38 65.3853 19.2C65.7453 19.02 66.0093 18.744 66.1773 18.372H68.3193C68.0193 19.236 67.5093 19.92 66.7893 20.424C66.0813 20.928 65.1873 21.18 64.1073 21.18ZM70.2685 21V11.82H72.4825V14.034H72.5365V21H70.2685ZM72.5365 16.212L72.3025 14.034C72.5185 13.254 72.8845 12.66 73.4005 12.252C73.9165 11.844 74.5345 11.64 75.2545 11.64C75.5065 11.64 75.6865 11.664 75.7945 11.712V13.854C75.7345 13.83 75.6505 13.818 75.5425 13.818C75.4345 13.806 75.3025 13.8 75.1465 13.8C74.2705 13.8 73.6165 13.992 73.1845 14.376C72.7525 14.76 72.5365 15.372 72.5365 16.212ZM81.9857 21.162C80.3537 21.162 79.0517 20.79 78.0797 20.046C77.1197 19.29 76.5557 18.228 76.3877 16.86H78.6377C78.7457 17.652 79.0997 18.27 79.6997 18.714C80.2997 19.146 81.0857 19.362 82.0577 19.362C82.8617 19.362 83.4737 19.218 83.8937 18.93C84.3257 18.63 84.5417 18.216 84.5417 17.688C84.5417 17.22 84.4097 16.842 84.1457 16.554C83.8817 16.266 83.4377 16.032 82.8137 15.852L80.4737 15.15C79.2857 14.79 78.4097 14.316 77.8457 13.728C77.2937 13.14 77.0177 12.402 77.0177 11.514C77.0177 10.77 77.2097 10.122 77.5937 9.57C77.9777 9.018 78.5177 8.592 79.2137 8.292C79.9217 7.992 80.7437 7.842 81.6797 7.842C83.1197 7.842 84.2657 8.196 85.1177 8.904C85.9817 9.6 86.4737 10.548 86.5937 11.748H84.3437C84.2117 11.028 83.9117 10.5 83.4437 10.164C82.9757 9.816 82.3457 9.642 81.5537 9.642C80.8577 9.642 80.3057 9.78 79.8977 10.056C79.4897 10.332 79.2857 10.71 79.2857 11.19C79.2857 11.586 79.4057 11.922 79.6457 12.198C79.8977 12.474 80.3597 12.714 81.0317 12.918L83.4077 13.638C84.5957 13.986 85.4597 14.46 85.9997 15.06C86.5397 15.66 86.8097 16.422 86.8097 17.346C86.8097 18.57 86.3837 19.512 85.5317 20.172C84.6917 20.832 83.5097 21.162 81.9857 21.162ZM92.6014 21.18C91.6294 21.18 90.7774 20.976 90.0454 20.568C89.3254 20.16 88.7614 19.596 88.3534 18.876C87.9574 18.156 87.7594 17.328 87.7594 16.392C87.7594 15.456 87.9574 14.634 88.3534 13.926C88.7614 13.206 89.3254 12.648 90.0454 12.252C90.7654 11.844 91.6054 11.64 92.5654 11.64C93.4774 11.64 94.2694 11.832 94.9414 12.216C95.6134 12.588 96.1354 13.116 96.5074 13.8C96.8794 14.484 97.0654 15.282 97.0654 16.194C97.0654 16.362 97.0594 16.518 97.0474 16.662C97.0354 16.806 97.0174 16.95 96.9934 17.094H89.1634V15.51H95.2474L94.7794 15.942C94.7794 15.078 94.5814 14.43 94.1854 13.998C93.7894 13.566 93.2374 13.35 92.5294 13.35C91.7614 13.35 91.1494 13.614 90.6934 14.142C90.2494 14.67 90.0274 15.432 90.0274 16.428C90.0274 17.412 90.2494 18.168 90.6934 18.696C91.1494 19.212 91.7914 19.47 92.6194 19.47C93.0994 19.47 93.5194 19.38 93.8794 19.2C94.2394 19.02 94.5034 18.744 94.6714 18.372H96.8134C96.5134 19.236 96.0034 19.92 95.2834 20.424C94.5754 20.928 93.6814 21.18 92.6014 21.18ZM104.346 21C104.286 20.76 104.238 20.496 104.202 20.208C104.178 19.92 104.166 19.572 104.166 19.164H104.094V14.808C104.094 14.328 103.956 13.968 103.68 13.728C103.416 13.476 103.008 13.35 102.456 13.35C101.916 13.35 101.484 13.452 101.16 13.656C100.848 13.848 100.656 14.13 100.584 14.502H98.406C98.502 13.65 98.91 12.96 99.63 12.432C100.35 11.904 101.316 11.64 102.528 11.64C103.788 11.64 104.742 11.928 105.39 12.504C106.038 13.068 106.362 13.902 106.362 15.006V19.164C106.362 19.452 106.38 19.746 106.416 20.046C106.464 20.346 106.53 20.664 106.614 21H104.346ZM101.16 21.18C100.236 21.18 99.498 20.952 98.946 20.496C98.406 20.028 98.136 19.404 98.136 18.624C98.136 17.784 98.442 17.118 99.054 16.626C99.666 16.134 100.53 15.804 101.646 15.636L104.508 15.204V16.644L102.024 17.022C101.484 17.106 101.076 17.256 100.8 17.472C100.536 17.688 100.404 17.988 100.404 18.372C100.404 18.72 100.53 18.99 100.782 19.182C101.034 19.362 101.382 19.452 101.826 19.452C102.474 19.452 103.014 19.29 103.446 18.966C103.878 18.642 104.094 18.246 104.094 17.778L104.346 19.164C104.106 19.824 103.71 20.328 103.158 20.676C102.618 21.012 101.952 21.18 101.16 21.18ZM108.659 21V11.82H110.873V14.034H110.927V21H108.659ZM110.927 16.212L110.693 14.034C110.909 13.254 111.275 12.66 111.791 12.252C112.307 11.844 112.925 11.64 113.645 11.64C113.897 11.64 114.077 11.664 114.185 11.712V13.854C114.125 13.83 114.041 13.818 113.933 13.818C113.825 13.806 113.693 13.8 113.537 13.8C112.661 13.8 112.007 13.992 111.575 14.376C111.143 14.76 110.927 15.372 110.927 16.212ZM119.457 21.18C118.533 21.18 117.717 20.976 117.009 20.568C116.313 20.16 115.761 19.596 115.353 18.876C114.957 18.144 114.759 17.316 114.759 16.392C114.759 15.468 114.957 14.652 115.353 13.944C115.761 13.224 116.313 12.66 117.009 12.252C117.717 11.844 118.533 11.64 119.457 11.64C120.213 11.64 120.897 11.784 121.509 12.072C122.121 12.348 122.625 12.744 123.021 13.26C123.417 13.764 123.669 14.352 123.777 15.024H121.599C121.467 14.532 121.215 14.148 120.843 13.872C120.471 13.596 120.021 13.458 119.493 13.458C119.001 13.458 118.575 13.578 118.215 13.818C117.867 14.058 117.597 14.4 117.405 14.844C117.213 15.288 117.117 15.804 117.117 16.392C117.117 16.992 117.213 17.514 117.405 17.958C117.597 18.402 117.873 18.75 118.233 19.002C118.593 19.242 119.013 19.362 119.493 19.362C120.021 19.362 120.471 19.224 120.843 18.948C121.215 18.672 121.467 18.288 121.599 17.796H123.777C123.669 18.468 123.411 19.062 123.003 19.578C122.607 20.082 122.103 20.478 121.491 20.766C120.891 21.042 120.213 21.18 119.457 21.18ZM125.411 21V8.04H127.679V21H125.411ZM131.855 21V15.204C131.855 14.64 131.711 14.214 131.423 13.926C131.135 13.638 130.715 13.494 130.163 13.494C129.683 13.494 129.251 13.602 128.867 13.818C128.495 14.034 128.201 14.334 127.985 14.718C127.781 15.102 127.679 15.546 127.679 16.05L127.445 13.854C127.757 13.182 128.213 12.648 128.813 12.252C129.413 11.844 130.133 11.64 130.973 11.64C131.969 11.64 132.743 11.922 133.295 12.486C133.859 13.05 134.141 13.8 134.141 14.736V21H131.855Z" fill="white"/>
</svg>
